<svg width="14" height="14" viewBox="0 0 14 14" fill="none" xmlns="http://www.w3.org/2000/svg">
<path id="Star 1" d="M6.62543 0.735797C6.73726 0.207076 7.49197 0.207077 7.60379 0.735798L8.1472 3.30514C8.22059 3.65214 8.6219 3.81453 8.91595 3.61621L11.0138 2.20137C11.4557 1.90329 11.9951 2.41149 11.7237 2.87038L10.3223 5.24072C10.1512 5.53007 10.3086 5.90242 10.6354 5.98125L13.2145 6.60346C13.7248 6.72658 13.7248 7.45246 13.2145 7.57557L10.6354 8.19779C10.3087 8.27662 10.1512 8.64897 10.3223 8.93831L11.7237 11.3087C11.9951 11.7676 11.4557 12.2757 11.0138 11.9777L8.91595 10.5628C8.6219 10.3645 8.22059 10.5269 8.1472 10.8739L7.60379 13.4432C7.49197 13.972 6.73726 13.972 6.62543 13.4432L6.08203 10.8739C6.00864 10.5269 5.60733 10.3645 5.31327 10.5628L3.21546 11.9777C2.77348 12.2757 2.23416 11.7676 2.50548 11.3087L3.90695 8.93831C4.07803 8.64897 3.92058 8.27662 3.59381 8.19779L1.01472 7.57557C0.504404 7.45246 0.504402 6.72658 1.01472 6.60346L3.59381 5.98125C3.92058 5.90242 4.07803 5.53007 3.90695 5.24072L2.50548 2.87038C2.23416 2.41149 2.77348 1.90329 3.21546 2.20137L5.31327 3.61621C5.60733 3.81453 6.00864 3.65214 6.08203 3.30514L6.62543 0.735797Z" fill="white"/>
</svg>
