<svg width="30" height="29" viewBox="0 0 30 29" fill="none" xmlns="http://www.w3.org/2000/svg">
<path id="Star 7" d="M13.5188 0.944527C14.264 -0.0337342 15.736 -0.0337349 16.4812 0.944526L19.1461 4.44313C19.5071 4.91705 20.0731 5.18962 20.6687 5.17637L25.0655 5.07854C26.295 5.05118 27.2127 6.20206 26.9125 7.39458L25.8387 11.6594C25.6933 12.2372 25.8331 12.8496 26.2148 13.307L29.0327 16.6836C29.8206 17.6278 29.493 19.0629 28.3735 19.5717L24.3696 21.3913C23.8272 21.6377 23.4356 22.1289 23.3159 22.7125L22.4329 27.0209C22.186 28.2256 20.8598 28.8643 19.764 28.3062L15.845 26.3103C15.3141 26.04 14.6859 26.04 14.155 26.3103L10.236 28.3062C9.14023 28.8643 7.81398 28.2256 7.56708 27.0209L6.68406 22.7125C6.56445 22.1289 6.17277 21.6377 5.6304 21.3913L1.62652 19.5717C0.506971 19.0629 0.179414 17.6278 0.967337 16.6836L3.78522 13.307C4.16694 12.8496 4.30672 12.2372 4.16127 11.6594L3.0875 7.39458C2.78726 6.20206 3.70505 5.05118 4.93448 5.07854L9.33134 5.17637C9.92695 5.18962 10.4929 4.91706 10.8539 4.44313L13.5188 0.944527Z" fill="#3C3C3C"/>
</svg>
