<svg width="29" height="28" viewBox="0 0 29 28" fill="none" xmlns="http://www.w3.org/2000/svg">
<path id="Star 6" d="M13.2959 1.3457C13.7754 0.439152 15.0233 0.38242 15.5986 1.17578L15.7041 1.3457L16.0254 1.9541C16.6268 3.09129 18.015 3.5248 19.1445 2.97461L19.3672 2.85156L19.9844 2.46484C20.8598 1.91676 21.974 2.50513 22.0635 3.4873L22.0674 3.68945L22.04 4.22656C21.9729 5.53469 22.9781 6.62885 24.2539 6.70508L24.5127 6.70703L25.1299 6.67676C26.176 6.62628 26.8592 7.71209 26.4307 8.61426L26.3291 8.79199L26.0928 9.14844C25.3539 10.2581 25.6842 11.7396 26.7773 12.4424L27.0068 12.5723L27.4248 12.7803C28.3691 13.2499 28.4287 14.5427 27.6025 15.1152L27.4248 15.2197L27.0068 15.4277C25.8129 16.0215 25.3611 17.4707 25.959 18.625L26.0928 18.8516L26.3291 19.208C26.9098 20.0801 26.3288 21.2235 25.334 21.3184L25.1299 21.3232L24.5127 21.293C23.2044 21.2298 22.1124 22.2386 22.04 23.5146V23.7734L22.0674 24.3105C22.1203 25.3422 21.0639 26.03 20.1621 25.6299L19.9844 25.5352L19.3672 25.1484C18.2768 24.4658 16.8579 24.786 16.1562 25.8281L16.0254 26.0459L15.7041 26.6543C15.2246 27.5608 13.9767 27.6176 13.4014 26.8242L13.2959 26.6543L12.9746 26.0459C12.3732 24.9087 10.985 24.4752 9.85547 25.0254L9.63281 25.1484L9.01562 25.5352C8.14022 26.0832 7.02603 25.4949 6.93652 24.5127L6.93262 24.3105L6.95996 23.7734C7.02709 22.4653 6.02192 21.3712 4.74609 21.2949L4.4873 21.293L3.87012 21.3232C2.82399 21.3737 2.14078 20.2879 2.56934 19.3857L2.6709 19.208L2.90723 18.8516C3.64608 17.7419 3.31584 16.2604 2.22266 15.5576L1.99316 15.4277L1.5752 15.2197C0.630919 14.7501 0.571324 13.4573 1.39746 12.8848L1.5752 12.7803L1.99316 12.5723C3.18706 11.9785 3.63886 10.5293 3.04102 9.375L2.90723 9.14844L2.6709 8.79199C2.09025 7.91993 2.67121 6.77645 3.66602 6.68164L3.87012 6.67676L4.4873 6.70703C5.79563 6.77016 6.88763 5.7614 6.95996 4.48535V4.22656L6.93262 3.68945C6.87968 2.6578 7.93614 1.96998 8.83789 2.37012L9.01562 2.46484L9.63281 2.85156C10.7232 3.53423 12.1421 3.21404 12.8438 2.17188L12.9746 1.9541L13.2959 1.3457Z" stroke="#01B868"/>
</svg>
