<svg width="28" height="28" viewBox="0 0 28 28" fill="none" xmlns="http://www.w3.org/2000/svg">
<path id="Star 11" d="M12.3433 1.23041C13.0354 -0.119247 14.9646 -0.119245 15.6567 1.23041L15.8773 1.66048C16.3799 2.64049 17.6187 2.97242 18.544 2.37501L18.95 2.11284C20.2243 1.2901 21.895 2.25465 21.8196 3.76958L21.7955 4.25231C21.7408 5.35232 22.6477 6.25919 23.7477 6.20445L24.2304 6.18043C25.7453 6.10505 26.7099 7.77571 25.8872 9.04998L25.625 9.45603C25.0276 10.3813 25.3595 11.6201 26.3395 12.1227L26.7696 12.3433C28.1192 13.0354 28.1192 14.9646 26.7696 15.6567L26.3395 15.8773C25.3595 16.3799 25.0276 17.6187 25.625 18.544L25.8872 18.95C26.7099 20.2243 25.7453 21.895 24.2304 21.8196L23.7477 21.7955C22.6477 21.7408 21.7408 22.6477 21.7955 23.7477L21.8196 24.2304C21.895 25.7453 20.2243 26.7099 18.95 25.8872L18.544 25.625C17.6187 25.0276 16.3799 25.3595 15.8773 26.3395L15.6567 26.7696C14.9646 28.1192 13.0354 28.1192 12.3433 26.7696L12.1227 26.3395C11.6201 25.3595 10.3813 25.0276 9.45603 25.625L9.04998 25.8872C7.77571 26.7099 6.10505 25.7453 6.18043 24.2304L6.20445 23.7477C6.25919 22.6477 5.35232 21.7408 4.25231 21.7955L3.76958 21.8196C2.25465 21.895 1.2901 20.2243 2.11284 18.95L2.37501 18.544C2.97242 17.6187 2.64049 16.3799 1.66048 15.8773L1.23041 15.6567C-0.119247 14.9646 -0.119245 13.0354 1.23041 12.3433L1.66048 12.1227C2.64049 11.6201 2.97242 10.3813 2.37501 9.45603L2.11284 9.04998C1.2901 7.77571 2.25465 6.10505 3.76958 6.18043L4.25231 6.20445C5.35232 6.25919 6.25919 5.35232 6.20445 4.25231L6.18043 3.76958C6.10505 2.25465 7.77571 1.2901 9.04998 2.11284L9.45603 2.37501C10.3813 2.97242 11.6201 2.64049 12.1227 1.66048L12.3433 1.23041Z" fill="#482C2C"/>
</svg>
