<svg width="51" height="49" viewBox="0 0 51 49" fill="none" xmlns="http://www.w3.org/2000/svg">
<path id="Star 10" d="M22.2861 2.75391C23.6498 0.322184 27.0835 0.246243 28.5762 2.52637L28.7139 2.75391C29.9204 4.90565 32.578 5.74182 34.7871 4.70508L34.999 4.59863L35.1357 4.52637C37.5637 3.23541 40.4501 5.0178 40.4512 7.70508L40.4424 7.96777C40.2739 10.4224 42.0564 12.5621 44.4707 12.8643L44.7061 12.8877L44.8457 12.8984C47.5785 13.1016 49.044 16.1573 47.583 18.4004L47.4316 18.6143C45.9481 20.5787 46.2939 23.351 48.1719 24.8984L48.3584 25.0439C50.5622 26.6795 50.1372 30.0768 47.6807 31.1885L47.4375 31.2891C45.1347 32.1437 43.9042 34.6616 44.6406 36.9824L44.7178 37.207C45.679 39.7724 43.5324 42.3875 40.8809 42.0205L40.623 41.9756L40.4521 41.9404C38.0416 41.4348 35.6702 42.8938 35.0156 45.2402L34.957 45.4707C34.3503 48.1594 31.0713 49.1823 29 47.4229L28.8037 47.2432C27.035 45.5185 24.2061 45.4651 22.3711 47.082L22.1963 47.2432C20.2069 49.1833 16.8844 48.3057 16.1094 45.7256L16.043 45.4707C15.501 43.0679 13.1876 41.5174 10.7812 41.8975L10.5479 41.9404L10.377 41.9756C7.69569 42.5379 5.43476 40.0205 6.19824 37.4551L6.28223 37.207C7.14663 34.9007 6.01511 32.3369 3.78223 31.377L3.5625 31.2891C0.976132 30.3288 0.402114 26.953 2.43652 25.208L2.6416 25.0439C4.61787 23.5775 5.07196 20.821 3.70605 18.8066L3.56836 18.6143C1.91671 16.4272 3.24477 13.3097 5.89453 12.9268L6.1543 12.8984L6.29395 12.8877C8.74754 12.7055 10.6124 10.6368 10.5684 8.2041L10.5576 7.96777C10.3692 5.22443 13.1739 3.31608 15.6279 4.41113L15.8643 4.52637L16.001 4.59863C18.1792 5.75667 20.8669 5.02436 22.165 2.95801L22.2861 2.75391Z" stroke="#01B868"/>
</svg>
