<svg width="291" height="147" viewBox="0 0 291 147" fill="none" xmlns="http://www.w3.org/2000/svg">
<g clip-path="url(#clip0_2590_23896)">
<rect width="289" height="147" rx="16" fill="#0C0C0C"/>
<path d="M267 84L276.293 74.7071C276.683 74.3166 276.683 73.6834 276.293 73.2929L267 64" stroke="white" stroke-width="2" stroke-linecap="round"/>
<g opacity="0.65">
<g opacity="0.92" filter="url(#filter0_g_2590_23896)">
<path d="M110.966 38.9158C112.234 36.4442 115.766 36.4442 117.034 38.9158L132.345 68.7697C133.265 70.5644 135.534 71.1723 137.228 70.0782L165.415 51.8794C167.748 50.3727 170.808 52.139 170.67 54.9133L169.002 88.423C168.902 90.4374 170.563 92.0981 172.577 91.9979L206.087 90.3304C208.861 90.1924 210.627 93.2518 209.121 95.5854L190.922 123.772C189.828 125.466 190.436 127.735 192.23 128.655L222.084 143.966C224.556 145.234 224.556 148.766 222.084 150.034L192.23 165.345C190.436 166.265 189.828 168.534 190.922 170.228L209.121 198.415C210.627 200.748 208.861 203.808 206.087 203.67L172.577 202.002C170.563 201.902 168.902 203.563 169.002 205.577L170.67 239.087C170.808 241.861 167.748 243.627 165.415 242.121L137.228 223.922C135.534 222.828 133.265 223.436 132.345 225.23L117.034 255.084C115.766 257.556 112.234 257.556 110.966 255.084L95.6553 225.23C94.7349 223.436 92.4663 222.828 90.7719 223.922L62.5854 242.121C60.2518 243.627 57.1924 241.861 57.3304 239.087L58.9979 205.577C59.0981 203.563 57.4374 201.902 55.423 202.002L21.9133 203.67C19.139 203.808 17.3727 200.748 18.8794 198.415L37.0782 170.228C38.1723 168.534 37.5644 166.265 35.7697 165.345L5.91579 150.034C3.44419 148.766 3.44419 145.234 5.91579 143.966L35.7697 128.655C37.5644 127.735 38.1723 125.466 37.0782 123.772L18.8794 95.5854C17.3727 93.2518 19.139 90.1924 21.9133 90.3304L55.423 91.9979C57.4374 92.0981 59.0981 90.4374 58.9979 88.423L57.3304 54.9133C57.1924 52.139 60.2518 50.3727 62.5854 51.8794L90.7719 70.0782C92.4663 71.1723 94.7349 70.5644 95.6553 68.7697L110.966 38.9158Z" fill="#01B868"/>
</g>
</g>
<g style="mix-blend-mode:luminosity">
<path d="M31.6436 66.3378C30.0363 66.3378 28.6645 66.0409 27.5282 65.4472C26.4021 64.8534 25.537 64.0498 24.933 63.0363C24.3392 62.0228 24.0372 60.8762 24.027 59.5966C24.0168 59.2485 24.027 58.9055 24.0577 58.5677C24.0987 58.2196 24.155 57.8716 24.2266 57.5235L27.1289 43.8413H29.2634L26.3918 57.416C26.3202 57.7436 26.2638 58.0865 26.2229 58.4449C26.1922 58.8032 26.1819 59.1461 26.1922 59.4737C26.2229 60.4667 26.4635 61.3318 26.9139 62.0689C27.3644 62.806 28.0144 63.3792 28.8641 63.7887C29.7138 64.1982 30.7529 64.403 31.9814 64.403C33.1894 64.403 34.2797 64.1675 35.2522 63.6966C36.235 63.2257 37.0591 62.55 37.7245 61.6696C38.39 60.779 38.8558 59.7245 39.1219 58.5063L42.2546 43.8413H44.389L41.1796 58.8902C40.8418 60.4565 40.2583 61.7976 39.4291 62.9134C38.5998 64.0191 37.5351 64.8688 36.235 65.4625C34.9349 66.0461 33.4044 66.3378 31.6436 66.3378ZM51.7138 64.449C52.5635 64.449 53.3518 64.2597 54.0787 63.8809C54.8055 63.4919 55.4402 62.9544 55.9828 62.2685C56.5356 61.5724 56.9656 60.7534 57.2727 59.8115C57.5798 58.8697 57.7334 57.8511 57.7334 56.7557C57.7334 55.128 57.3444 53.8585 56.5663 52.9474C55.7985 52.026 54.739 51.5654 53.3877 51.5654C52.4765 51.5654 51.6422 51.7803 50.8846 52.2103C50.1271 52.63 49.4719 53.2136 48.9191 53.9609C48.3765 54.698 47.9516 55.5477 47.6445 56.51C47.3476 57.4621 47.1992 58.4704 47.1992 59.5351C47.1992 60.9786 47.6087 62.161 48.4277 63.0824C49.2569 63.9935 50.3523 64.449 51.7138 64.449ZM44.4044 71.2978H42.3928L46.9228 50.0298H48.9191L48.2741 53.0549H48.3355C48.8883 52.0721 49.6613 51.2787 50.6543 50.6747C51.6473 50.0707 52.712 49.7687 53.8483 49.7687C55.0563 49.7687 56.1005 50.0502 56.981 50.6133C57.8614 51.1763 58.537 51.9749 59.0079 53.0088C59.4891 54.0326 59.7297 55.2406 59.7297 56.6328C59.7297 58.0046 59.53 59.2792 59.1308 60.4565C58.7315 61.6235 58.1685 62.6422 57.4416 63.5123C56.7148 64.3825 55.8651 65.0582 54.8925 65.5393C53.9302 66.0205 52.8809 66.2611 51.7446 66.2611C50.8437 66.2611 50.0196 66.087 49.2722 65.7389C48.5249 65.3909 47.9004 64.9148 47.3988 64.3108C46.8972 63.6966 46.5645 62.9953 46.4007 62.2071H46.3239L44.4044 71.2978ZM66.9163 71.9121C65.7083 71.9121 64.6231 71.7073 63.6608 71.2978C62.7087 70.8986 61.9563 70.356 61.4035 69.6701C60.8609 68.9842 60.5845 68.2113 60.5743 67.3513H62.678C62.7702 68.1601 63.2001 68.8306 63.9679 69.363C64.7357 69.8953 65.7288 70.1615 66.947 70.1615C68.4007 70.1615 69.6036 69.7673 70.5557 68.9791C71.518 68.1908 72.1732 67.0493 72.5212 65.5547L73.1662 62.7599H73.1047C72.5622 63.7427 71.7893 64.5309 70.786 65.1247C69.793 65.7082 68.7283 66 67.5919 66C66.4044 66 65.3602 65.7287 64.4593 65.1861C63.5687 64.6333 62.8725 63.8604 62.3709 62.8674C61.8795 61.8641 61.6338 60.6868 61.6338 59.3355C61.6338 58.107 61.8181 56.9195 62.1866 55.7729C62.5654 54.6161 63.1029 53.5872 63.799 52.6864C64.5054 51.7752 65.3551 51.0586 66.3481 50.5365C67.3514 50.0144 68.4724 49.7585 69.7111 49.7687C71.0829 49.779 72.2499 50.1731 73.2122 50.9511C74.1745 51.7292 74.7632 52.7222 74.9782 53.9302H75.055L75.8535 50.0298H77.8651L74.5789 65.5393C74.1285 67.6277 73.2225 69.2094 71.8609 70.2843C70.5096 71.3695 68.8614 71.9121 66.9163 71.9121ZM68.0373 64.2033C68.9586 64.2033 69.7981 64.0037 70.5557 63.6045C71.3132 63.195 71.9633 62.637 72.5059 61.9307C73.0484 61.214 73.4631 60.3899 73.7497 59.4583C74.0466 58.5267 74.195 57.5337 74.195 56.4793C74.195 55.0256 73.7753 53.8483 72.9358 52.9474C72.1066 52.0363 71.0419 51.5807 69.7418 51.5807C68.8614 51.5807 68.0475 51.7803 67.3002 52.1796C66.5631 52.5686 65.9233 53.1163 65.3807 53.8227C64.8381 54.5291 64.4133 55.3481 64.1061 56.2797C63.8093 57.2113 63.6608 58.2094 63.6608 59.2741C63.6608 60.7585 64.0396 61.9511 64.7972 62.852C65.5547 63.7529 66.6348 64.2033 68.0373 64.2033ZM77.9572 66L81.3509 50.0298H83.2858L82.779 52.4253H82.8404C83.3728 51.5858 84.0126 50.9409 84.7599 50.4904C85.5175 50.0298 86.3877 49.7994 87.3705 49.7994C87.7595 49.7994 88.1331 49.8404 88.4915 49.9223C88.8498 50.0042 89.121 50.0912 89.3053 50.1833L88.86 52.1335C88.686 52.0312 88.4044 51.9441 88.0154 51.8725C87.6264 51.7906 87.2374 51.7496 86.8484 51.7496C85.9782 51.7496 85.2206 51.939 84.5757 52.3178C83.9307 52.6966 83.3881 53.2494 82.9479 53.9763C82.518 54.6929 82.1955 55.563 81.9805 56.5868L79.9842 66H77.9572ZM93.5743 64.5105C94.4342 64.5105 95.2327 64.3364 95.9698 63.9884C96.7069 63.6403 97.3365 63.1591 97.8586 62.5449C98.3807 61.9204 98.7237 61.2089 98.8875 60.4104L99.3789 58.2452L94.6185 58.5063C93.1853 58.5882 92.0796 58.9106 91.3016 59.4737C90.5236 60.0265 90.1345 60.779 90.1345 61.731C90.1345 62.5705 90.4519 63.2462 91.0866 63.758C91.7213 64.2597 92.5506 64.5105 93.5743 64.5105ZM93.0675 66.2611C92.1359 66.2611 91.2914 66.0768 90.5338 65.7082C89.7762 65.3397 89.1774 64.8329 88.7372 64.188C88.2969 63.5328 88.0768 62.7855 88.0768 61.946C88.0768 60.4104 88.6501 59.2127 89.7967 58.3527C90.9535 57.4825 92.5659 56.9912 94.6339 56.8785L99.7167 56.6021L99.9624 55.4658C99.9931 55.2918 100.014 55.128 100.024 54.9744C100.044 54.8106 100.055 54.6519 100.055 54.4984C100.055 53.5872 99.7423 52.8706 99.1178 52.3485C98.4933 51.8264 97.6078 51.5654 96.4612 51.5654C95.6525 51.5654 94.941 51.6933 94.3267 51.9493C93.7125 52.2052 93.216 52.5635 92.8372 53.0242C92.4584 53.4746 92.2025 54.007 92.0694 54.6212H89.9503C90.1243 53.6589 90.5082 52.8143 91.102 52.0875C91.6957 51.3606 92.4635 50.7924 93.4054 50.383C94.3472 49.9735 95.417 49.7687 96.6148 49.7687C97.7204 49.7687 98.6827 49.9581 99.5017 50.3369C100.321 50.7054 100.955 51.2275 101.406 51.9032C101.867 52.5686 102.097 53.3415 102.097 54.222C102.097 54.4676 102.087 54.7082 102.066 54.9437C102.046 55.1689 102.015 55.3839 101.974 55.5886L99.7628 66H97.7972L98.3039 63.6505H98.2579C97.8893 64.1726 97.4338 64.6333 96.8912 65.0326C96.3588 65.4318 95.7651 65.7389 95.1099 65.9539C94.4649 66.1587 93.7842 66.2611 93.0675 66.2611ZM109.928 66.2611C108.731 66.2611 107.692 65.9795 106.811 65.4165C105.931 64.8534 105.245 64.0703 104.753 63.067C104.272 62.0535 104.032 60.8813 104.032 59.5505C104.032 58.1684 104.236 56.8888 104.646 55.7115C105.066 54.524 105.644 53.4849 106.381 52.5942C107.129 51.7036 107.994 51.0125 108.976 50.5212C109.959 50.0195 111.014 49.7687 112.14 49.7687C113.051 49.7687 113.88 49.9479 114.627 50.3062C115.385 50.6645 116.009 51.1559 116.501 51.7803C116.992 52.3946 117.31 53.0907 117.453 53.8688H117.53L119.679 43.8413H121.706L116.992 66H114.95L115.579 63.0056H115.518C114.975 63.9577 114.192 64.7408 113.169 65.355C112.155 65.9591 111.075 66.2611 109.928 66.2611ZM110.389 64.4644C111.29 64.4644 112.119 64.2597 112.877 63.8502C113.645 63.4407 114.31 62.8725 114.873 62.1456C115.436 61.4086 115.871 60.5589 116.178 59.5966C116.485 58.6342 116.639 57.6003 116.639 56.4946C116.639 55.0409 116.229 53.8585 115.411 52.9474C114.602 52.0363 113.517 51.5807 112.155 51.5807C111.316 51.5807 110.527 51.7803 109.79 52.1796C109.053 52.5686 108.403 53.1214 107.84 53.8381C107.287 54.5547 106.852 55.389 106.535 56.3411C106.217 57.2932 106.059 58.3271 106.059 59.443C106.059 60.9786 106.443 62.202 107.21 63.1131C107.988 64.014 109.048 64.4644 110.389 64.4644ZM123.81 56.8018H133.577C133.597 56.6789 133.607 56.5612 133.607 56.4486C133.618 56.336 133.623 56.2029 133.623 56.0493C133.623 55.2303 133.469 54.483 133.162 53.8073C132.855 53.1214 132.389 52.5737 131.765 52.1642C131.14 51.7548 130.352 51.55 129.4 51.55C128.448 51.55 127.593 51.7803 126.835 52.241C126.078 52.7017 125.438 53.3262 124.916 54.1145C124.404 54.9027 124.035 55.7985 123.81 56.8018ZM127.864 66.2918C126.482 66.2918 125.31 66 124.348 65.4165C123.385 64.8329 122.653 64.0293 122.152 63.0056C121.66 61.9716 121.415 60.7841 121.415 59.443C121.415 58.0917 121.609 56.8325 121.998 55.6654C122.397 54.4881 122.955 53.4593 123.672 52.5789C124.389 51.6882 125.238 50.9972 126.221 50.5058C127.204 50.0144 128.274 49.7687 129.431 49.7687C130.72 49.7687 131.831 50.0349 132.763 50.5672C133.694 51.0996 134.411 51.852 134.913 52.8246C135.424 53.7971 135.68 54.959 135.68 56.3104C135.68 56.6482 135.665 57.0065 135.634 57.3853C135.614 57.7641 135.573 58.1173 135.512 58.4449H123.549C123.529 58.6291 123.513 58.798 123.503 58.9516C123.493 59.0949 123.488 59.2331 123.488 59.3662C123.488 60.4207 123.667 61.3318 124.025 62.0996C124.384 62.8674 124.895 63.456 125.561 63.8655C126.226 64.275 127.004 64.4798 127.895 64.4798C129.103 64.4798 130.127 64.1931 130.966 63.6198C131.816 63.0363 132.44 62.2429 132.84 61.2396H134.851C134.565 62.2224 134.083 63.0926 133.408 63.8502C132.742 64.6077 131.934 65.2066 130.981 65.6468C130.04 66.0768 129.001 66.2918 127.864 66.2918ZM149.27 66.0921C148.196 66.0921 147.31 65.8413 146.614 65.3397C145.918 64.8278 145.57 64.0703 145.57 63.067C145.57 62.8623 145.585 62.6473 145.616 62.4221C145.646 62.1866 145.687 61.946 145.739 61.7003L147.858 51.7343H145.524L145.877 50.0298H148.226L149.071 45.9451H151.113L150.253 50.0298H153.693L153.34 51.7343H149.9L147.888 61.1475C147.837 61.4034 147.796 61.644 147.766 61.8692C147.735 62.0945 147.72 62.3043 147.72 62.4988C147.72 63.1233 147.919 63.584 148.318 63.8809C148.728 64.1675 149.276 64.3108 149.961 64.3108C150.074 64.3108 150.192 64.3108 150.315 64.3108C150.448 64.3006 150.576 64.2904 150.699 64.2801C150.821 64.2699 150.924 64.2648 151.006 64.2648L150.637 65.9846C150.453 66.0051 150.223 66.0256 149.946 66.0461C149.68 66.0768 149.455 66.0921 149.27 66.0921ZM160.05 64.4644C161.238 64.4644 162.292 64.1266 163.214 63.4509C164.135 62.7752 164.862 61.8539 165.394 60.6868C165.927 59.5198 166.193 58.2043 166.193 56.7403C166.193 55.174 165.778 53.92 164.949 52.9781C164.13 52.0363 163.029 51.5654 161.647 51.5654C160.48 51.5654 159.431 51.9032 158.499 52.5789C157.568 53.2545 156.836 54.1759 156.304 55.3429C155.771 56.51 155.505 57.8255 155.505 59.2894C155.505 60.8557 155.915 62.1098 156.733 63.0516C157.563 63.9935 158.668 64.4644 160.05 64.4644ZM161.647 49.7687C162.989 49.7687 164.15 50.0554 165.133 50.6287C166.126 51.1917 166.894 51.9953 167.437 53.0395C167.979 54.0735 168.25 55.2866 168.25 56.6789C168.25 58.0302 168.041 59.2894 167.621 60.4565C167.211 61.6133 166.638 62.6268 165.901 63.497C165.164 64.3671 164.294 65.0479 163.291 65.5393C162.297 66.0205 161.217 66.2611 160.05 66.2611C158.72 66.2611 157.558 65.9744 156.565 65.4011C155.572 64.8278 154.804 64.0242 154.261 62.9902C153.719 61.9563 153.447 60.7431 153.447 59.3509C153.447 57.9995 153.652 56.7455 154.062 55.5886C154.481 54.4216 155.06 53.403 155.797 52.5328C156.534 51.6626 157.399 50.987 158.392 50.5058C159.395 50.0144 160.48 49.7687 161.647 49.7687ZM26.7604 97.3816V93.1587H36.4039C37.7041 93.1587 38.7022 92.8618 39.3983 92.268C40.1047 91.664 40.4579 90.799 40.4579 89.6729V89.6421C40.4579 88.5263 40.1047 87.6715 39.3983 87.0777C38.7022 86.4737 37.7041 86.1717 36.4039 86.1717H26.7604V81.8413H37.3867C39.2499 81.8413 40.852 82.1638 42.1931 82.8087C43.5445 83.4537 44.5835 84.3597 45.3104 85.5267C46.0475 86.6836 46.416 88.0349 46.416 89.5807V89.6114C46.416 91.147 46.0475 92.4984 45.3104 93.6654C44.5835 94.8325 43.5445 95.7436 42.1931 96.3988C40.852 97.054 39.2499 97.3816 37.3867 97.3816H26.7604ZM23.812 104V81.8413H29.6934V104H23.812ZM49.1187 104V81.8413H63.2616C65.1964 81.8413 66.8293 82.1279 68.1601 82.7012C69.491 83.2643 70.4993 84.0782 71.1852 85.1428C71.8712 86.1973 72.2141 87.4718 72.2141 88.9665V88.9972C72.2141 90.5737 71.8097 91.9251 71.001 93.0512C70.1922 94.167 69.0354 94.9758 67.5305 95.4774L73.0433 104H66.3788L61.6952 96.3988C61.6543 96.3988 61.6082 96.3988 61.557 96.3988C61.5161 96.3988 61.47 96.3988 61.4188 96.3988H55.0154V104H49.1187ZM55.0154 92.4062H62.7241C63.8502 92.4062 64.7255 92.1298 65.35 91.577C65.9744 91.0139 66.2867 90.2359 66.2867 89.2429V89.2122C66.2867 88.2294 65.9642 87.4616 65.3193 86.9088C64.6743 86.3457 63.7939 86.0642 62.678 86.0642H55.0154V92.4062ZM88.5989 104.43C85.7939 104.43 83.3472 103.964 81.2588 103.033C79.1806 102.091 77.5733 100.76 76.437 99.04C75.3007 97.3099 74.7325 95.2727 74.7325 92.9283V92.8976C74.7325 90.5533 75.3007 88.5212 76.437 86.8013C77.5836 85.0814 79.196 83.7506 81.2741 82.8087C83.3523 81.8669 85.7939 81.396 88.5989 81.396C91.4142 81.396 93.8609 81.8669 95.9391 82.8087C98.0173 83.7506 99.6245 85.0814 100.761 86.8013C101.907 88.5212 102.481 90.5533 102.481 92.8976V92.9283C102.481 95.2727 101.907 97.3099 100.761 99.04C99.6245 100.76 98.0173 102.091 95.9391 103.033C93.8609 103.964 91.4142 104.43 88.5989 104.43ZM88.5989 99.8385C90.2062 99.8385 91.5985 99.557 92.7758 98.9939C93.9531 98.4309 94.8642 97.6324 95.5091 96.5984C96.1541 95.5542 96.4766 94.3308 96.4766 92.9283V92.8976C96.4766 91.4849 96.149 90.2666 95.4938 89.2429C94.8488 88.2089 93.9377 87.4104 92.7604 86.8474C91.5831 86.2843 90.196 86.0028 88.5989 86.0028C87.0019 86.0028 85.6148 86.2843 84.4375 86.8474C83.2602 87.4002 82.3491 88.1936 81.7041 89.2275C81.0592 90.2615 80.7367 91.4849 80.7367 92.8976V92.9283C80.7367 94.3411 81.0592 95.5644 81.7041 96.5984C82.3491 97.6324 83.2602 98.4309 84.4375 98.9939C85.6148 99.557 87.0019 99.8385 88.5989 99.8385Z" fill="url(#paint0_linear_2590_23896)"/>
</g>
<g style="mix-blend-mode:soft-light">
<path d="M56.7354 22.8916C68.6902 10.7144 88.3098 10.7144 100.265 22.8916L102.083 24.7441C106.087 28.8228 111.831 30.6882 117.468 29.7422L120.028 29.3125C136.857 26.4878 152.73 38.0201 155.244 54.8984L155.627 57.4668C156.469 63.12 160.018 68.0059 165.135 70.5537L167.459 71.7109C182.734 79.3177 188.797 97.9767 180.91 113.109L179.71 115.412C177.069 120.48 177.069 126.52 179.71 131.588L180.91 133.891C188.797 149.023 182.734 167.682 167.459 175.289L165.135 176.446C160.018 178.994 156.469 183.88 155.627 189.533L155.244 192.102C152.73 208.98 136.857 220.512 120.028 217.688L117.468 217.258C111.831 216.312 106.087 218.177 102.083 222.256L100.265 224.108C88.3098 236.286 68.6902 236.286 56.7354 224.108L54.917 222.256C50.9129 218.177 45.169 216.312 39.5322 217.258L36.9717 217.688C20.1425 220.512 4.27005 208.98 1.75586 192.102L1.37305 189.533C0.530921 183.88 -3.0185 178.994 -8.13477 176.446L-10.459 175.289C-25.7344 167.682 -31.7971 149.023 -23.9102 133.891L-22.71 131.588C-20.0685 126.52 -20.0685 120.48 -22.71 115.412L-23.9102 113.109C-31.7971 97.9767 -25.7344 79.3177 -10.459 71.7109L-8.13477 70.5537C-3.0185 68.0059 0.530918 63.12 1.37305 57.4668L1.75586 54.8984C4.27004 38.0201 20.1425 26.4878 36.9717 29.3125L39.5322 29.7422C45.169 30.6882 50.9129 28.8228 54.917 24.7441L56.7354 22.8916Z" stroke="white" stroke-width="13"/>
</g>
</g>
<defs>
<filter id="filter0_g_2590_23896" x="-95.938" y="-62.938" width="419.876" height="419.876" filterUnits="userSpaceOnUse" color-interpolation-filters="sRGB">
<feFlood flood-opacity="0" result="BackgroundImageFix"/>
<feBlend mode="normal" in="SourceGraphic" in2="BackgroundImageFix" result="shape"/>
<feTurbulence type="fractalNoise" baseFrequency="1.8202204704284668 1.8202204704284668" numOctaves="3" seed="5976" />
<feDisplacementMap in="shape" scale="200" xChannelSelector="R" yChannelSelector="G" result="displacedImage" width="100%" height="100%" />
<feMerge result="effect1_texture_2590_23896">
<feMergeNode in="displacedImage"/>
</feMerge>
</filter>
<linearGradient id="paint0_linear_2590_23896" x1="22" y1="74" x2="177" y2="74" gradientUnits="userSpaceOnUse">
<stop stop-color="white"/>
<stop offset="1" stop-color="#D0D0D0"/>
</linearGradient>
<clipPath id="clip0_2590_23896">
<rect width="291" height="147" rx="16" fill="white"/>
</clipPath>
</defs>
</svg>
