<svg width="15" height="16" viewBox="0 0 15 16" fill="none" xmlns="http://www.w3.org/2000/svg">
<path fill-rule="evenodd" clip-rule="evenodd" d="M14.6388 1.17117C14.6388 0.892584 14.4129 0.666748 14.1343 0.666748H1.25796C0.979375 0.666748 0.75354 0.892584 0.75354 1.17117C0.75354 1.44975 0.979376 1.67558 1.25796 1.67558H2.15737C2.67338 1.67558 3.10466 2.06821 3.15298 2.58196L3.97431 11.3161C4.02262 11.8299 4.45391 12.2225 4.96992 12.2225H6.35081C6.8789 12.2225 7.31597 12.6331 7.34887 13.1602L7.49466 15.496C7.5065 15.6856 7.66379 15.8334 7.85384 15.8334C8.04388 15.8334 8.20117 15.6856 8.21301 15.496L8.35881 13.1602C8.39171 12.6331 8.82877 12.2225 9.35687 12.2225H10.4224C10.9384 12.2225 11.3697 11.8299 11.418 11.3161L12.2393 2.58196C12.2876 2.06821 12.7189 1.67558 13.2349 1.67558H14.1343C14.4129 1.67558 14.6388 1.44975 14.6388 1.17117Z" fill="white"/>
</svg>
