<svg width="23" height="23" viewBox="0 0 23 23" fill="none" xmlns="http://www.w3.org/2000/svg">
<path id="Star 1" opacity="0.35" d="M10.6862 0.906074C10.8722 0.0264597 12.1278 0.026458 12.3138 0.906072L13.2179 5.1806C13.34 5.7579 14.0076 6.02806 14.4968 5.69812L17.9869 3.3443C18.7222 2.84839 19.6194 3.69386 19.168 4.4573L16.8365 8.40076C16.5519 8.88214 16.8138 9.5016 17.3574 9.63275L21.6482 10.6679C22.4972 10.8727 22.4972 12.0803 21.6482 12.2852L17.3574 13.3203C16.8138 13.4515 16.5519 14.0709 16.8365 14.5523L19.168 18.4958C19.6194 19.2592 18.7222 20.1047 17.9869 19.6088L14.4968 17.255C14.0076 16.925 13.34 17.1952 13.2179 17.7725L12.3138 22.047C12.1278 22.9266 10.8722 22.9266 10.6862 22.047L9.78212 17.7725C9.66003 17.1952 8.99238 16.925 8.50317 17.255L5.01311 19.6088C4.27781 20.1047 3.38056 19.2592 3.83195 18.4958L6.16352 14.5523C6.44814 14.0709 6.18619 13.4515 5.64257 13.3203L1.35182 12.2852C0.502824 12.0803 0.502821 10.8727 1.35182 10.6679L5.64257 9.63275C6.18619 9.5016 6.44814 8.88214 6.16352 8.40076L3.83195 4.4573C3.38057 3.69386 4.27781 2.84839 5.01311 3.3443L8.50317 5.69812C8.99238 6.02806 9.66003 5.7579 9.78212 5.1806L10.6862 0.906074Z" fill="white"/>
</svg>
