<svg width="51" height="51" viewBox="0 0 51 51" fill="none" xmlns="http://www.w3.org/2000/svg">
<path id="Star 5" d="M24.3541 1.7277C24.6047 0.475197 26.3953 0.475198 26.6459 1.7277C26.8731 2.86309 28.4358 3.01231 28.8737 1.94043C29.3568 0.757983 31.1151 1.09687 31.1242 2.37417C31.1323 3.53203 32.6386 3.97429 33.2714 3.00466C33.9696 1.93501 35.632 2.60054 35.3991 3.85646C35.188 4.99494 36.5833 5.71427 37.3883 4.88193C38.2762 3.96374 39.7826 4.93186 39.3163 6.12101C38.8936 7.19897 40.1275 8.16935 41.0754 7.50439C42.1211 6.77084 43.4171 8.00656 42.7341 9.08597C42.115 10.0644 43.143 11.2508 44.1996 10.7773C45.3652 10.2549 46.404 11.7135 45.529 12.6442C44.736 13.4878 45.5209 14.8473 46.648 14.5823C47.8914 14.2899 48.6353 15.9188 47.6001 16.667C46.6617 17.3453 47.1751 18.8288 48.332 18.7818C49.6083 18.7301 50.0305 20.4703 48.8724 21.0091C47.8225 21.4975 48.0459 23.0514 49.1908 23.2242C50.4539 23.4149 50.5391 25.2036 49.2999 25.5135C48.1766 25.7944 48.1019 27.3625 49.1934 27.7489C50.3975 28.1752 50.1427 29.9476 48.8672 30.0174C47.7111 30.0807 47.341 31.6062 48.3396 32.1922C49.4413 32.8387 48.8556 34.5309 47.59 34.3581C46.4428 34.2014 45.7907 35.6293 46.6604 36.3937C47.6198 37.237 46.7244 38.7878 45.5144 38.3786C44.4176 38.0076 43.507 39.2863 44.2163 40.2015C44.9988 41.2111 43.8262 42.5644 42.7155 41.9336C41.7087 41.3617 40.5725 42.445 41.0958 43.4779C41.6731 44.6174 40.2655 45.7243 39.2943 44.8947C38.4139 44.1426 37.0933 44.9913 37.4116 46.1046C37.7628 47.3327 36.1712 48.1532 35.3745 47.1548C34.6524 46.2497 33.195 46.8331 33.2969 47.9865C33.4094 49.2589 31.6912 49.7634 31.0979 48.6322C30.5601 47.6068 29.0187 47.9039 28.9004 49.0557C28.7701 50.3264 26.9875 50.4966 26.619 49.2736C26.2849 48.1649 24.7151 48.1649 24.381 49.2736C24.0125 50.4966 22.2299 50.3264 22.0996 49.0557C21.9814 47.9039 20.4399 47.6068 19.9021 48.6322C19.3088 49.7634 17.5906 49.2589 17.7031 47.9865C17.805 46.8331 16.3476 46.2497 15.6255 47.1548C14.8288 48.1532 13.2372 47.3327 13.5884 46.1046C13.9067 44.9913 12.5861 44.1426 11.7057 44.8947C10.7345 45.7243 9.3269 44.6174 9.90417 43.4779C10.4275 42.445 9.29135 41.3617 8.28452 41.9336C7.17385 42.5644 6.00119 41.2111 6.78367 40.2015C7.49298 39.2863 6.58241 38.0076 5.48555 38.3786C4.27556 38.7878 3.38021 37.237 4.33962 36.3937C5.20931 35.6293 4.55719 34.2014 3.40996 34.3581C2.14438 34.5309 1.5587 32.8387 2.66036 32.1922C3.65901 31.6062 3.28891 30.0807 2.13275 30.0174C0.857335 29.9476 0.602494 28.1752 1.80659 27.7489C2.89809 27.3625 2.82339 25.7944 1.7001 25.5135C0.460941 25.2036 0.546145 23.4149 1.80915 23.2242C2.95406 23.0514 3.17747 21.4975 2.12764 21.0091C0.969521 20.4703 1.39169 18.7301 2.66797 18.7818C3.8249 18.8288 4.33834 17.3453 3.39992 16.667C2.3647 15.9188 3.10858 14.2899 4.352 14.5823C5.47914 14.8473 6.26405 13.4878 5.47095 12.6442C4.59605 11.7135 5.63475 10.2549 6.80037 10.7773C7.85699 11.2508 8.88499 10.0644 8.26588 9.08597C7.58292 8.00656 8.8789 6.77084 9.92459 7.50439C10.8725 8.16935 12.1064 7.19897 11.6837 6.12101C11.2174 4.93186 12.7238 3.96373 13.6117 4.88193C14.4167 5.71427 15.812 4.99494 15.6009 3.85646C15.368 2.60054 17.0304 1.93501 17.7286 3.00466C18.3614 3.97429 19.8677 3.53203 19.8758 2.37417C19.8849 1.09687 21.6432 0.757983 22.1263 1.94043C22.5642 3.01231 24.1269 2.86309 24.3541 1.7277Z" fill="#3C3C3C"/>
</svg>
