<svg width="54" height="54" viewBox="0 0 54 54" fill="none" xmlns="http://www.w3.org/2000/svg">
<rect width="54" height="54" rx="8" fill="#1F1F1F"/>
<path d="M39.0006 17V37C39.0006 37.5304 38.7898 38.0391 38.4148 38.4142C38.0397 38.7893 37.531 39 37.0006 39H28.0006C27.7353 39 27.481 38.8946 27.2934 38.7071C27.1059 38.5196 27.0006 38.2652 27.0006 38C27.0006 37.7348 27.1059 37.4804 27.2934 37.2929C27.481 37.1054 27.7353 37 28.0006 37H37.0006V17H17.0006V29C17.0006 29.2652 16.8952 29.5196 16.7077 29.7071C16.5201 29.8946 16.2658 30 16.0006 30C15.7353 30 15.481 29.8946 15.2934 29.7071C15.1059 29.5196 15.0006 29.2652 15.0006 29V17C15.0006 16.4696 15.2113 15.9609 15.5863 15.5858C15.9614 15.2107 16.4701 15 17.0006 15H37.0006C37.531 15 38.0397 15.2107 38.4148 15.5858C38.7898 15.9609 39.0006 16.4696 39.0006 17ZM26.7081 30.2925C26.6152 30.1995 26.5049 30.1258 26.3835 30.0754C26.2621 30.0251 26.132 29.9992 26.0006 29.9992C25.8691 29.9992 25.739 30.0251 25.6176 30.0754C25.4962 30.1258 25.3859 30.1995 25.2931 30.2925L19.0006 36.5863L16.7081 34.2925C16.6151 34.1996 16.5048 34.1259 16.3835 34.0756C16.2621 34.0253 16.132 33.9994 16.0006 33.9994C15.8692 33.9994 15.7391 34.0253 15.6177 34.0756C15.4963 34.1259 15.386 34.1996 15.2931 34.2925C15.2001 34.3854 15.1264 34.4957 15.0762 34.6171C15.0259 34.7385 15 34.8686 15 35C15 35.1314 15.0259 35.2615 15.0762 35.3829C15.1264 35.5043 15.2001 35.6146 15.2931 35.7075L18.2931 38.7075C18.3859 38.8005 18.4962 38.8742 18.6176 38.9246C18.739 38.9749 18.8691 39.0008 19.0006 39.0008C19.132 39.0008 19.2621 38.9749 19.3835 38.9246C19.5049 38.8742 19.6152 38.8005 19.7081 38.7075L26.7081 31.7075C26.801 31.6146 26.8748 31.5043 26.9251 31.3829C26.9754 31.2615 27.0013 31.1314 27.0013 31C27.0013 30.8686 26.9754 30.7385 26.9251 30.6171C26.8748 30.4957 26.801 30.3854 26.7081 30.2925Z" fill="white" fill-opacity="0.74"/>
</svg>
