<svg width="67" height="67" viewBox="0 0 67 67" fill="none" xmlns="http://www.w3.org/2000/svg">
<path id="Star 4" d="M32.4561 1.76758C32.6773 0.661945 34.2152 0.627351 34.5186 1.66406L34.5439 1.76758C34.9329 3.71085 37.5367 4.01901 38.4023 2.31445L38.4805 2.14355C38.9069 1.09991 40.4234 1.35666 40.5254 2.43164L40.5303 2.53809C40.5443 4.51982 43.0421 5.3152 44.2148 3.80566L44.3242 3.65234C44.9405 2.70809 46.3821 3.248 46.2783 4.32324L46.2627 4.42871C45.9016 6.3773 48.2045 7.63092 49.6416 6.37012L49.7773 6.24023C50.5611 5.42976 51.8744 6.23253 51.5693 7.26855L51.5342 7.36914C50.8105 9.21434 52.8345 10.8813 54.4844 9.91504L54.6426 9.81348C55.5655 9.16623 56.7026 10.2026 56.207 11.1621L56.1533 11.2549C55.0941 12.9296 56.7657 14.9488 58.5684 14.3125L58.7432 14.2432C59.772 13.7821 60.6926 15.0149 60.0244 15.8633L59.9541 15.9434C58.5967 17.3873 59.8557 19.6865 61.7461 19.4033L61.9316 19.3682C63.0288 19.1105 63.699 20.4945 62.8828 21.2012L62.7988 21.2676C61.1927 22.4285 61.9936 24.9241 63.9033 25.0039H64.1982C65.2427 25.0525 65.5847 26.4625 64.6787 26.9844L64.584 27.0332C62.7874 27.8692 63.1018 30.4714 64.9619 30.9111L65.1475 30.9473C66.2619 31.116 66.3694 32.6506 65.3486 33.0029L65.2461 33.0332C63.3237 33.5142 63.1401 36.1285 64.8838 36.9121L65.0586 36.9824C66.1211 37.3589 65.9362 38.8862 64.8672 39.0391L64.7607 39.0498C62.782 39.1583 62.1069 41.6906 63.6709 42.79L63.8291 42.8916C64.8015 43.4622 64.3308 44.9274 63.252 44.875L63.1455 44.8652C61.1821 44.5974 60.0398 46.9565 61.3672 48.332L61.5029 48.4619C62.3498 49.2062 61.6109 50.5562 60.5615 50.3008L60.459 50.2705C58.5817 49.6358 57.0135 51.736 58.0566 53.3379L58.166 53.4912C58.8565 54.3822 57.8755 55.5671 56.8936 55.1182L56.7979 55.0693C55.0746 54.0909 53.1372 55.8566 53.8584 57.627L53.9365 57.7979C54.4461 58.8037 53.2582 59.7819 52.3789 59.1543L52.2949 59.0889C50.7879 57.8017 48.5514 59.1689 48.9248 61.0439L48.9688 61.2266C49.2788 62.3107 47.9273 63.0462 47.1826 62.2637L47.1123 62.1836C45.8762 60.6347 43.4213 61.5534 43.4326 63.4648L43.4424 63.6533C43.5413 64.776 42.0755 65.2424 41.4922 64.334L41.4385 64.2412C40.5178 62.4861 37.9333 62.9242 37.583 64.8037L37.5557 64.9893C37.4406 66.1108 35.9123 66.292 35.5117 65.2891L35.4766 65.1885C34.9048 63.2908 32.2846 63.2315 31.585 65.0107L31.5234 65.1885C31.1981 66.2677 29.6639 66.1558 29.46 65.0957L29.4443 64.9893C29.2417 63.0182 26.6802 62.4643 25.6562 64.0781L25.5615 64.2412C25.0378 65.2396 23.553 64.8397 23.5537 63.7598L23.5576 63.6533C23.7321 61.6792 21.3217 60.6498 20.0107 62.041L19.8877 62.1836C19.1844 63.065 17.8012 62.3906 18.0068 61.3301L18.0312 61.2266C18.5761 59.321 16.4031 57.8541 14.8525 58.9727L14.7051 59.0889C13.8479 59.8211 12.6176 58.8978 13.0195 57.8955L13.0635 57.7979C13.9589 56.03 12.1032 54.1788 10.3691 54.9834L10.2021 55.0693C9.22174 55.6262 8.18772 54.4862 8.77246 53.5781L8.83398 53.4912C10.048 51.9248 8.57667 49.7561 6.72168 50.2178L6.54102 50.2705C5.47298 50.6317 4.67403 49.3172 5.41992 48.5361L5.49707 48.4619C6.98511 47.1536 5.95054 44.7456 4.04199 44.8477L3.85449 44.8652C2.73759 45.0178 2.20147 43.5761 3.08105 42.9502L3.1709 42.8916C4.88008 41.8886 4.32029 39.3284 2.42676 39.0674L2.23926 39.0498C1.11351 38.9882 0.860109 37.4704 1.84277 37.0225L1.94141 36.9824C3.80956 36.321 3.74463 33.7005 1.93457 33.0859L1.75391 33.0332C0.660225 32.7597 0.69857 31.2218 1.74805 30.9678L1.85254 30.9473C3.81212 30.6514 4.24412 28.0661 2.58301 27.1201L2.41602 27.0332C1.39364 26.5575 1.72261 25.0541 2.80176 25.0039H3.09668C4.94477 24.9267 5.75472 22.5868 4.34961 21.3838L4.20117 21.2676C3.28751 20.6071 3.89508 19.1933 4.96387 19.3477L5.06836 19.3682C6.99765 19.8218 8.35983 17.5815 7.16895 16.0859L7.0459 15.9434C6.27382 15.1218 7.13785 13.8489 8.1582 14.2031L8.25684 14.2432C10.0653 15.0537 11.8263 13.1118 10.9404 11.418L10.8467 11.2549C10.2439 10.3022 11.3327 9.21543 12.2676 9.75586L12.3574 9.81348C13.98 10.9517 16.0773 9.37799 15.5273 7.54688L15.4658 7.36914C15.0544 6.31966 16.3289 5.45952 17.1445 6.16699L17.2227 6.24023C18.6003 7.66468 20.9565 6.51689 20.7637 4.61523L20.7373 4.42871C20.5318 3.32023 21.9463 2.71627 22.6133 3.56543L22.6758 3.65234C23.759 5.31183 26.2896 4.63053 26.46 2.72656L26.4697 2.53809C26.478 1.41101 27.9814 1.0859 28.4756 2.0459L28.5195 2.14355C29.2692 3.97802 31.8836 3.78763 32.4111 1.9502L32.4561 1.76758Z" stroke="#01B868"/>
</svg>
