<svg width="16" height="15" viewBox="0 0 16 15" fill="none" xmlns="http://www.w3.org/2000/svg">
<path d="M15.3549 1.21219V13.3341C15.3549 13.6556 15.2201 13.9639 14.9802 14.1913C14.7402 14.4186 14.4147 14.5463 14.0754 14.5463H8.31742C8.14774 14.5463 7.98501 14.4825 7.86503 14.3688C7.74505 14.2551 7.67765 14.101 7.67765 13.9402C7.67765 13.7795 7.74505 13.6253 7.86503 13.5116C7.98501 13.398 8.14774 13.3341 8.31742 13.3341H14.0754V1.21219H1.2799V8.48535C1.2799 8.64609 1.2125 8.80026 1.09252 8.91392C0.972538 9.02759 0.809809 9.09144 0.64013 9.09144C0.470451 9.09144 0.307722 9.02759 0.187741 8.91392C0.0677604 8.80026 0.000355709 8.64609 0.000355709 8.48535V1.21219C0.000355709 0.890699 0.135165 0.582373 0.375127 0.355043C0.615089 0.127713 0.940547 0 1.2799 0H14.0754C14.4147 0 14.7402 0.127713 14.9802 0.355043C15.2201 0.582373 15.3549 0.890699 15.3549 1.21219ZM7.49051 9.26873C7.4311 9.21237 7.36054 9.16767 7.28287 9.13717C7.2052 9.10666 7.12195 9.09097 7.03787 9.09097C6.9538 9.09097 6.87054 9.10666 6.79288 9.13717C6.71521 9.16767 6.64465 9.21237 6.58523 9.26873L2.55945 13.0833L1.09277 11.6931C1.03333 11.6368 0.962761 11.5921 0.885097 11.5617C0.807433 11.5312 0.724193 11.5155 0.64013 11.5155C0.556067 11.5155 0.472827 11.5312 0.395163 11.5617C0.317499 11.5921 0.246931 11.6368 0.18749 11.6931C0.128048 11.7494 0.0808966 11.8163 0.048727 11.8899C0.0165575 11.9634 0 12.0423 0 12.1219C0 12.2016 0.0165575 12.2804 0.048727 12.354C0.0808966 12.4276 0.128048 12.4944 0.18749 12.5507L2.10681 14.369C2.16623 14.4254 2.23679 14.4701 2.31446 14.5006C2.39212 14.5311 2.47538 14.5468 2.55945 14.5468C2.64353 14.5468 2.72678 14.5311 2.80445 14.5006C2.88212 14.4701 2.95268 14.4254 3.01209 14.369L7.49051 10.1264C7.55 10.0701 7.59719 10.0032 7.62938 9.92964C7.66158 9.85606 7.67815 9.77719 7.67815 9.69754C7.67815 9.61789 7.66158 9.53902 7.62938 9.46544C7.59719 9.39186 7.55 9.32502 7.49051 9.26873Z" fill="#01B868"/>
</svg>
