<svg fill="none" height="28" viewBox="0 0 28 28" width="28" xmlns="http://www.w3.org/2000/svg"><rect fill="#fff" fill-opacity=".1" height="28" rx="14" width="28"/><path d="m21.3549 8.21219v12.12191c0 .3215-.1348.6298-.3747.8572-.24.2273-.5655.355-.9048.355h-5.758c-.1697 0-.3324-.0638-.4524-.1775-.1199-.1137-.1874-.2678-.1874-.4286 0-.1607.0675-.3149.1874-.4286.12-.1136.2827-.1775.4524-.1775h5.758v-12.12191h-12.7955v7.27311c0 .1608-.0674.315-.18738.4286-.11998.1137-.28271.1775-.45239.1775s-.33241-.0638-.45239-.1775c-.11998-.1136-.18738-.2678-.18738-.4286v-7.27311c0-.32149.1348-.62982.37477-.85715.23996-.22733.56542-.35504.90477-.35504h12.7955c.3393 0 .6648.12771.9048.35504.2399.22733.3747.53566.3747.85715zm-7.8644 8.05651c-.0594-.0563-.13-.101-.2076-.1315-.0777-.0305-.161-.0462-.245-.0462-.0841 0-.1674.0157-.245.0462-.0777.0305-.1483.0752-.2077.1315l-4.02575 3.8146-1.46668-1.3902c-.05944-.0563-.13001-.101-.20767-.1314-.07767-.0305-.16091-.0462-.24497-.0462s-.1673.0157-.24497.0462c-.07766.0304-.14823.0751-.20767.1314s-.10659.1232-.13876.1968c-.03217.0735-.04873.1524-.04873.232 0 .0797.01656.1585.04873.2321s.07932.1404.13876.1967l1.91932 1.8183c.05942.0564.12998.1011.20765.1316.07766.0305.16092.0462.24499.0462.08408 0 .16733-.0157.245-.0462s.14823-.0752.20764-.1316l4.47841-4.2426c.0595-.0563.1067-.1232.1389-.1968.0322-.0735.0487-.1524.0487-.2321 0-.0796-.0165-.1585-.0487-.2321-.0322-.0735-.0794-.1404-.1389-.1967z" fill="#01b868"/></svg>