<svg width="51" height="51" viewBox="0 0 51 51" fill="none" xmlns="http://www.w3.org/2000/svg">
<path id="Star 9" d="M22.9022 2.15302C23.8721 -0.144408 27.1279 -0.144408 28.0978 2.15302C28.8609 3.96039 31.1906 4.45558 32.6228 3.11483C34.4434 1.41056 37.4176 2.73478 37.3693 5.22811C37.3313 7.1896 39.2581 8.58953 41.1119 7.94725C43.4683 7.13081 45.6468 9.55027 44.5885 11.8084C43.7559 13.5848 44.9468 15.6475 46.9015 15.8147C49.3862 16.0273 50.3923 19.1236 48.5071 20.7561C47.024 22.0403 47.2729 24.409 48.9906 25.3568C51.1741 26.5616 50.8338 29.7995 48.4475 30.524C46.5703 31.094 45.8343 33.3592 47.018 34.9237C48.5226 36.9124 46.8948 39.732 44.4202 39.4233C42.4734 39.1805 40.8797 40.9504 41.3247 42.8611C41.8904 45.2899 39.2564 47.2036 37.1213 45.9151C35.4416 44.9014 33.2658 45.8701 32.8952 47.7967C32.4241 50.2456 29.2395 50.9225 27.813 48.8769C26.6908 47.2677 24.3092 47.2677 23.187 48.8769C21.7605 50.9225 18.5759 50.2456 18.1048 47.7967C17.7342 45.8701 15.5584 44.9014 13.8787 45.9151C11.7436 47.2036 9.10963 45.2899 9.67529 42.8611C10.1203 40.9504 8.52662 39.1805 6.57985 39.4233C4.10522 39.732 2.47736 36.9124 3.982 34.9237C5.16569 33.3592 4.4297 31.094 2.55247 30.524C0.166233 29.7995 -0.174084 26.5616 2.00937 25.3568C3.72708 24.409 3.97603 22.0403 2.49292 20.7561C0.607683 19.1236 1.61375 16.0273 4.09848 15.8147C6.0532 15.6475 7.24405 13.5848 6.41152 11.8084C5.35324 9.55027 7.53174 7.13081 9.88811 7.94724C11.7419 8.58953 13.6687 7.1896 13.6307 5.22811C13.5824 2.73478 16.5566 1.41056 18.3772 3.11483C19.8094 4.45558 22.1391 3.96039 22.9022 2.15302Z" fill="#3C3C3C"/>
</svg>
